<svg xmlns="http://www.w3.org/2000/svg" viewBox="0 0 48 48"><defs><style>.cls-1{fill:#eb5b62;}</style></defs><title>airbnb head</title><g id="Layer_2" data-name="Layer 2"><g id="Layer_1-2" data-name="Layer 1"><g id="Layer_2-2" data-name="Layer 2"><g id="Layer_1-2-2" data-name="Layer 1-2"><path class="cls-1" d="M26.95,25.35a11.76,11.76,0,0,1-2.94,6h0a12.13,12.13,0,0,1-3-6.12,2.54,2.54,0,0,1,1.21-2.63,3.44,3.44,0,0,1,3.54,0A2.57,2.57,0,0,1,26.95,25.35Z"/><path class="cls-1" d="M35.4,32.84a3.92,3.92,0,0,1-4.93,3.64,10.36,10.36,0,0,1-4.93-3.23h0c.93-1.56,1.88-3,2.66-4.52a7.36,7.36,0,0,0,.73-5.18c-.57-2.41-2.51-3.66-5.36-3.57A4.83,4.83,0,0,0,19,23.86a8,8,0,0,0,1.09,5.39c.7,1.35,1.58,2.6,2.53,4.12A44.76,44.76,0,0,1,18.87,36,3.93,3.93,0,0,1,14,35.58a4.19,4.19,0,0,1-1.24-4.77,41.1,41.1,0,0,1,2.29-5.23c2-4.13,4.17-8.22,6.24-12.34a3,3,0,0,1,2.82-1.91,3,3,0,0,1,2.72,1.91c2.61,5.34,5.29,10.65,7.83,16A8.39,8.39,0,0,1,35.4,32.84Z"/><path class="cls-1" d="M24,0h0A24,24,0,0,0,0,24H0A24,24,0,0,0,24,48h0A24,24,0,0,0,48,24h0A24,24,0,0,0,24,0ZM37.53,33.89a6.31,6.31,0,0,1-9,4.25,15.35,15.35,0,0,1-2.45-1.46c-.75-.55-1.4-1.2-2.07-1.8-1,.79-1.87,1.65-2.89,2.35-2.18,1.47-4.52,2.23-7.08,1-3.4-1.67-4.69-5.5-3-9.2,1.95-4.21,4-8.37,6.06-12.53.77-1.57,1.62-3.1,2.46-4.63a4.82,4.82,0,0,1,4.52-2.68,4.78,4.78,0,0,1,4.47,2.76q4.12,8.33,8.2,16.68A8.3,8.3,0,0,1,37.53,33.89Z"/></g></g></g></g></svg>