<?xml version="1.0" encoding="utf-8"?>
<!-- Generator: Adobe Illustrator 21.0.2, SVG Export Plug-In . SVG Version: 6.00 Build 0)  -->
<svg version="1.1" id="Layer_1" xmlns="http://www.w3.org/2000/svg" xmlns:xlink="http://www.w3.org/1999/xlink" x="0px" y="0px"
	 viewBox="0 0 48 48" style="enable-background:new 0 0 48 48;" xml:space="preserve">
<style type="text/css">
	.st0{fill:#EB5B62;}
</style>
<title>airbnb head</title>
<g id="Layer_2">
	<g id="Layer_1-2">
		<g id="Layer_2-2">
			<g id="Layer_1-2-2">
				<path class="st0" d="M27,25.3c-0.4,2.2-1.4,4.3-2.9,6l0,0c-1.6-1.7-2.6-3.8-3-6.1c-0.2-1,0.3-2.1,1.2-2.6c1.1-0.7,2.5-0.7,3.5,0
					C26.7,23.2,27.2,24.3,27,25.3z"/>
				<path class="st0" d="M35.4,32.8c-0.1,2.2-1.9,3.9-4.1,3.8c-0.3,0-0.6-0.1-0.9-0.1c-1.9-0.6-3.6-1.7-4.9-3.2l0,0
					c0.9-1.6,1.9-3,2.7-4.5c0.9-1.6,1.1-3.4,0.7-5.2c-0.6-2.4-2.5-3.7-5.4-3.6c-2.2,0.1-4.1,1.7-4.6,3.9c-0.3,1.9,0.1,3.8,1.1,5.4
					c0.7,1.4,1.6,2.6,2.5,4.1c-1.2,0.9-2.5,1.8-3.8,2.6c-1.5,1-3.5,0.8-4.9-0.4c-1.4-1.2-1.9-3.1-1.2-4.8c0.6-1.8,1.4-3.5,2.3-5.2
					c2-4.1,4.2-8.2,6.2-12.3c0.5-1.2,1.6-1.9,2.8-1.9c1.2,0,2.3,0.8,2.7,1.9c2.6,5.3,5.3,10.7,7.8,16C35.2,30.4,35.4,31.6,35.4,32.8
					z"/>
				<path class="st0" d="M24,0L24,0C10.7,0,0,10.7,0,24l0,0c0,13.3,10.7,24,24,24l0,0c13.3,0,24-10.7,24-24l0,0C48,10.7,37.3,0,24,0
					z M37.5,33.9c-0.8,3.4-4.1,5.5-7.5,4.8c-0.5-0.1-1-0.3-1.5-0.5c-0.9-0.4-1.7-0.9-2.5-1.5c-0.8-0.5-1.4-1.2-2.1-1.8
					c-1,0.8-1.9,1.7-2.9,2.3c-2.2,1.5-4.5,2.2-7.1,1c-3.4-1.7-4.7-5.5-3-9.2c1.9-4.2,4-8.4,6.1-12.5c0.8-1.6,1.6-3.1,2.5-4.6
					c0.8-1.7,2.6-2.8,4.5-2.7c1.9-0.1,3.7,1,4.5,2.8c2.7,5.6,5.5,11.1,8.2,16.7C37.6,30.3,37.9,32.1,37.5,33.9z"/>
			</g>
		</g>
	</g>
</g>
</svg>
